<svg xmlns="http://www.w3.org/2000/svg" width="93.243" height="70.427"><defs><style>.d{fill:url(#b)}.e{fill:#f9933e}.l{opacity:.23}.m{fill:#d19b61}.q{opacity:.145}.r{fill:#f48947;opacity:.998}.s{fill:#3b082b}.t{fill:#fff;opacity:.15}.u{fill:url(#l)}</style><linearGradient id="a" x1=".5" x2=".5" y2="1" gradientUnits="objectBoundingBox"><stop offset="0" stop-color="#e9694c"/><stop offset="1" stop-color="#c45354"/></linearGradient><linearGradient id="b" x1=".944" x2=".423" y1=".901" y2="1" gradientUnits="objectBoundingBox"><stop offset="0" stop-color="#fc9c35"/><stop offset="1" stop-color="#c35254"/></linearGradient><clipPath id="e"><path fill="#a23f44" d="M143.595 400.721l.052-.067a11.132 11.132 0 0 0 1.747-7.3 7.844 7.844 0 0 0-.727-2.585 9.3 9.3 0 0 0-.116-2.535c-.031-.149-.083-.288-.124-.432a10.428 10.428 0 0 0 .707-4.452c-.3-3.292-2.788-6.078-5.741-7.564a24.586 24.586 0 0 0-9.625-2.08 75.064 75.064 0 0 0-19.451 1.163 54.742 54.742 0 0 0-9.3 2.726c-2.09.827-4.811 1.613-6.674 2.9-2.535 1.749-2.812 5.73-2.824 8.505 0 .295 0 .592.009.89a10.479 10.479 0 0 0 .02 3.165 9.867 9.867 0 0 0 1.41 3.6 9.729 9.729 0 0 0 1.227 3.036c.075.136.152.272.227.408a1.93 1.93 0 0 0-.774.985c-.792 1.751-.175 3.892.643 5.511a14.788 14.788 0 0 0 3.765 4.69c.341 1.613.189 3.322 1.331 4.7a6.56 6.56 0 0 0 3.313 1.821 66.9 66.9 0 0 0 13.629 2.26 37.855 37.855 0 0 0 7.169.1 33.6 33.6 0 0 0 11.781-4.05c3.462-1.8 7.053-4.152 8.268-7.863a8.966 8.966 0 0 0-.037-5.436 11.008 11.008 0 0 0 .095-2.096z" transform="translate(-91.422 -373.534)"/></clipPath><linearGradient id="f" x1=".265" x2=".396" y1=".69" y2=".08" gradientUnits="objectBoundingBox"><stop offset="0" stop-color="#cf5b52"/><stop offset="1" stop-color="#f89140"/></linearGradient><clipPath id="g"><path fill="url(#a)" d="M145.02 378.44c-.909-2.863-4.536-4.019-7.292-5.214-3.151-1.364-6.638-1.687-10.058-1.992-3.13-.278-6.264-.554-9.4-.566-5.5-.021-12.623.188-17.8 2.044-6.515 2.335-9.018 6.019-9.22 8.36-.261 3.009 3 7.672 4.942 9.985a17.7 17.7 0 0 0 4.542 3.649q1.577.946 3.241 1.735a23.8 23.8 0 0 0 3.988 1.513c3.914 1.049 8.05.708 12.087.359 4.316-.373 8.7-.76 12.743-2.306 3.654-1.399 15.99-5.715 12.227-17.567z" transform="translate(-91.231 -370.667)"/></clipPath><linearGradient id="h" x1="1.192" x2="0" y1=".578" y2="1.203" gradientUnits="objectBoundingBox"><stop offset="0" stop-color="#f58c44"/><stop offset="1" stop-color="#e66a5d"/></linearGradient><filter id="i" width="60.787" height="68.194" x="0" y="2.233" filterUnits="userSpaceOnUse"><feOffset dy="3"/><feGaussianBlur result="j" stdDeviation="3"/><feFlood flood-opacity=".161"/><feComposite in2="j" operator="in"/><feComposite in="SourceGraphic"/></filter><clipPath id="k"><path fill="#252e48" d="M102.143 421.754c-3.867 5.423-12.729 8.734-18.825 8.684a15.974 15.974 0 0 1-12.2-5.613 16.879 16.879 0 0 1-3.382-9.606 41.872 41.872 0 0 1 .97-10.276 55.592 55.592 0 0 1 3.54-9.233c1.677-2.785 3.723-6.134 6.117-8.332 11.426-10.493 22.83-6.746 25.072-5.206 6.27 4.3 10.819 12.417 2.582 32.088a38.87 38.87 0 0 1-3.874 7.494z" transform="translate(-67.685 -380.245)"/></clipPath><linearGradient id="l" x1=".5" x2=".5" y2="1" gradientUnits="objectBoundingBox"><stop offset="0" stop-color="#df8377"/><stop offset="1" stop-color="#cd5a52"/></linearGradient></defs><g><path d="M37.361 44.918a6.561 6.561 0 0 0 3.313 1.821 66.909 66.909 0 0 0 13.629 2.26 37.855 37.855 0 0 0 7.169.1 33.6 33.6 0 0 0 11.781-4.05c3.462-1.8 7.053-4.152 8.268-7.863 1.29-3.939-.629-8.417-3.814-11.07s-7.388-3.76-11.508-4.213a44.28 44.28 0 0 0-10.565.11 29.327 29.327 0 0 0-13.25 4.783 18.43 18.43 0 0 0-6.757 8.675c-.652 1.833-.366 2.344.2 3.989.627 1.819.212 3.859 1.534 5.458z" class="d"/><path d="M32.266 35.525a14.812 14.812 0 0 0 6.209 6.343c1.644.876 8.179.938 9.959 1.487 3.513 1.083 15 0 20.409-1.476 5.22-1.428 10.654-4.189 11.8-7.008a11.211 11.211 0 0 0-.219-9.562 10.619 10.619 0 0 0-3.626-3.875 25.325 25.325 0 0 0-11.562-4.119 44.2 44.2 0 0 0-12.346.545 30.9 30.9 0 0 0-7.668 2.138c-3.717 1.686-6.789 4.464-9.641 7.326a4.085 4.085 0 0 1-2.047 1.333c-.946.291-1.394.211-1.913 1.356-.79 1.751-.173 3.892.645 5.512z" class="e"/><path d="M30.901 25.291a8.909 8.909 0 0 0 1.27 3.328 15.781 15.781 0 0 0 2.889 4.158c1.713 1.588 2.276 3.418 4.522 4.061a53.028 53.028 0 0 0 14.385 2.459 49.463 49.463 0 0 0 19.425-3.442c4.917-2.213 6.79-4.367 8.237-6.27a11.132 11.132 0 0 0 1.747-7.3 8.754 8.754 0 0 0-2.338-4.979 14.614 14.614 0 0 0-5.891-3.71c-5.764-2.089-12.106-1.681-18.2-.972a49.87 49.87 0 0 0-11.486 2.378c-3.406 1.251-6.6 3.352-10.18 4.081a5.772 5.772 0 0 0-4.38 6.208z" class="d"/><path d="M35.757 30.085a29.063 29.063 0 0 0 9.484 3.039 57.744 57.744 0 0 0 14.5 1.008c1.992-.046 8.975.123 14.262-2.581 7.847-4.015 9.22-11.007 8.527-14.388-.539-2.632-2.688-4.627-4.93-6.107A28.76 28.76 0 0 0 58.024 6.61c-6.977.963-13.248 4.427-20.025 6.141-1.944.492-4.52.384-6.2 1.6-2.166 1.572-2.684 5.2-2.27 7.629.605 3.515 3.219 6.374 6.228 8.105z" class="e"/><path d="M29.505 17.93a11.333 11.333 0 0 0 1.068 5.684 10.656 10.656 0 0 0 5.18 4.057 34.308 34.308 0 0 0 15.4 2.952c1.667-.071 15.107 1.178 24.774-4.9a13.218 13.218 0 0 0 3.135-2.462 15.215 15.215 0 0 0 2.019-3.428c1.133-2.384 2.274-4.92 2.035-7.549-.3-3.292-2.788-6.078-5.741-7.564a24.586 24.586 0 0 0-9.625-2.08 75.064 75.064 0 0 0-19.451 1.163 54.741 54.741 0 0 0-9.3 2.726c-2.09.827-4.811 1.613-6.674 2.9-2.53 1.741-2.807 5.722-2.82 8.501z" class="d"/><g clip-path="url(#e)" transform="translate(29.403 2.465)"><path fill="#a23f44" d="M28.549 9.614c-3.4-2.347-9.31-.835-11.1 2.91-3.731 7.794-5.309 15.657-5.849 24.242-.455 7.208-4.389 20.8 6.559 22.368 3.181.456 7.483-.523 9.013-3.7 2.029 1.2 5.089-.491 5.247-3.073.116-1.878.277-3.756.463-5.634.1-1.062-.4-2-.326-3.069a7.2 7.2 0 0 1 1-3.126 8.708 8.708 0 0 1-.449-2.037 4.47 4.47 0 0 1 .948-2.382 3.5 3.5 0 0 1-.64-2.168 9.125 9.125 0 0 1 .676-2.4 9.224 9.224 0 0 1-.493-1.844 5.165 5.165 0 0 1 1.2-2.278 7.071 7.071 0 0 1-1.26-3.193c-.363-5.02-.657-11.629-4.989-14.616z" opacity=".28"/><g opacity=".39"><path fill="#a13f44" d="M52.095 47.788a32.053 32.053 0 0 0 7.331-12.208 31.037 31.037 0 0 0 .541-15.576c-1.03-5.263-2.285-10.939-7-14.05-2.818-1.861-6.873-.538-8.516 2.233-2.76 4.657-1.553 5.841-.774 10.819.178 1.135.785 1.732.86 3.32a5.689 5.689 0 0 1-.4 2.335 2.725 2.725 0 0 1 .772 2.4 3.945 3.945 0 0 1-.754 2.333s.754.187.754 1.97a3.2 3.2 0 0 1-1.056 2.344s.564-.07.687 2.082c.107 1.866-1 2.151-1 2.151a2.939 2.939 0 0 1 1.245 2.52 27.366 27.366 0 0 1-1.967 9.159s6.803.661 9.277-1.832z"/></g></g><path fill="url(#f)" d="M145.02 378.44c-.909-2.863-4.536-4.019-7.292-5.214-3.151-1.364-6.638-1.687-10.058-1.992-3.13-.278-6.264-.554-9.4-.566-5.5-.021-12.623.188-17.8 2.044-6.515 2.335-9.018 6.019-9.22 8.36-.261 3.009 3 7.672 4.942 9.985a17.7 17.7 0 0 0 4.542 3.649q1.577.946 3.241 1.735a23.8 23.8 0 0 0 3.988 1.513c3.914 1.049 8.05.708 12.087.359 4.316-.373 8.7-.76 12.743-2.306 3.654-1.399 15.99-5.715 12.227-17.567z" transform="translate(-61.992 -370.667)"/><g clip-path="url(#g)" transform="translate(29.239)"><g class="l"><path d="M61.79 12.312c1.291-5.746-3.976-8.9-8.434-11.037a67.214 67.214 0 0 0-39.976-5.8C8.198-3.543-.091-.24-2 5.087c-.605 1.688.446 3.307 1.732 4.256 4.029 2.975 9.507-1.036 13.656-2.02a59.675 59.675 0 0 1 16.87-1.715c9.423.693 18.574.745 26.495 6.147 1.476 1.007 4.654 2.259 5.037.554z" class="m"/></g><g class="l"><path d="M54.417 15.323a54.118 54.118 0 0 1-10.229 3.57 63.865 63.865 0 0 1-11.093 1.337 33.081 33.081 0 0 1-10.56-1.36c-3.614-1.043-7.286-2.074-10.271.829a4.289 4.289 0 0 0-.656 5.083c2 3.669 7.8 4.764 11.637 5.518a33.013 33.013 0 0 0 14.4-.54c6.551-1.679 16.478-5.441 17.313-13.246.115-1.06-.541-1.191-.541-1.191z" class="m"/></g></g><g filter="url(#i)" transform="translate(0 -.005)"><path fill="url(#h)" d="M102.143 421.754c-3.867 5.423-12.729 8.734-18.825 8.684a15.974 15.974 0 0 1-12.2-5.613 16.879 16.879 0 0 1-3.382-9.606 41.872 41.872 0 0 1 .97-10.276 55.592 55.592 0 0 1 3.54-9.233c1.677-2.785 3.723-6.134 6.117-8.332 11.426-10.493 22.83-6.746 25.072-5.206 6.27 4.3 10.819 12.417 2.582 32.088a38.87 38.87 0 0 1-3.874 7.494z" transform="translate(-58.68 -372.01)"/></g><g clip-path="url(#k)" transform="translate(9 8.233)"><g opacity=".27"><g class="q"><path d="M11.052 4.176c6.227-2.285 13.014-4.934 19.675-2.79 6.764 2.176 8.876 8.436 7.512 15.01-1.507 7.261-5.2 14.453-9.189 20.65-3.76 5.843-9.73 9.575-13.522 15.265-2.119 3.179.634 8.322 4.571 7.966 9.991-.9 16.807-11.074 21.048-19.244 4.654-8.967 9.463-19.759 7.85-30.078-1.313-8.4-7.525-15.626-16.235-16.481-8.023-.787-17.477 2.561-21.944 9.4a.21.21 0 0 0 .235.305z"/></g></g><g class="q"><path d="M9.646 4.618c-4.076.836-7.6 7.811-9.21 11.082-2.684 5.453-5.052 11.212-5.89 17.263-1.166 8.412 4.018 25.854 15.569 22.958a3.3 3.3 0 0 0 2.267-3.992c-.9-3.844-3.935-5.944-5.776-9.245A17.3 17.3 0 0 1 4.999 31.83a79.932 79.932 0 0 1 3.007-12.939c1.291-4.129 2.182-8.365 3.437-12.477a1.476 1.476 0 0 0-1.8-1.8z"/></g></g><path d="M33.862 14.591c1.242 1.926.526 5.42.3 7.515a35.215 35.215 0 0 1-2.118 8.786 52.4 52.4 0 0 1-3.99 7.943c-1.423 2.436-3.247 4.862-2.336 7.81a2.814 2.814 0 0 0 1.955 1.956c8.185 1.863 13.648-12.539 14.777-18.595.811-4.343.983-8.737-1.282-12.684-1.543-2.687-3.651-4.9-6.873-3.8a.735.735 0 0 0-.434 1.067zM64.46 16.146c3.252 2.723 7.481 1.707 10.676-.608 2.757-2 6.937-7.239 3.455-10.4a2.112 2.112 0 0 0-2.906 0 10.9 10.9 0 0 0-1.786 2.746 13.235 13.235 0 0 1-2.8 3.051 36.992 36.992 0 0 1-6.466 3.852.87.87 0 0 0-.174 1.358z" class="r"/><path d="M27.448 19.296c-1.262-2.264 1.917-4.261 3.258-2.574s-2.101 4.648-3.258 2.574z" class="s"/><path d="M28.243 18.01c-.622-1.118.946-2.1 1.609-1.271s-1.039 2.294-1.609 1.271z" class="t"/><path d="M30.743 30.207c-.6-1.43 1.421-2.41 2.108-1.319s-1.555 2.63-2.108 1.319z" class="s"/><path d="M31.301 29.494c-.3-.707.7-1.19 1.041-.651s-.768 1.298-1.041.651z" class="t"/><path d="M25.836 50.516c-.3-.71.7-1.2 1.046-.654s-.773 1.305-1.046.654z" class="s"/><path d="M26.113 50.162c-.147-.351.348-.59.517-.323s-.382.644-.517.323z" class="t"/><path d="M63.893 46.966c-.3-.71.706-1.2 1.047-.654s-.773 1.305-1.047.654z" class="s"/><path d="M64.17 46.612c-.147-.351.348-.591.517-.323s-.382.644-.517.323z" class="t"/><path d="M32.896 18.097c-.6-1.43 1.42-2.41 2.108-1.318s-1.556 2.629-2.108 1.318z" class="s"/><path d="M33.453 17.384c-.3-.707.7-1.19 1.041-.651s-.765 1.298-1.041.651z" class="t"/><path d="M39.15 24.23c-.735-1.745 1.734-2.94 2.572-1.607s-1.898 3.207-2.572 1.607z" class="s"/><path d="M39.83 23.36c-.363-.862.856-1.453 1.27-.794s-.937 1.583-1.27.794z" class="t"/><path d="M49.945 42.585c-.464-1.1 1.094-1.857 1.624-1.015s-1.198 2.029-1.624 1.015z" class="s"/><path d="M50.374 42.036c-.229-.544.541-.917.8-.5s-.589.998-.8.5z" class="t"/><path d="M52.506 40.937c.905-1.435 3.05-.235 2.5 1.065s-3.33.249-2.5-1.065z" class="s"/><path d="M53.495 40.988c.447-.709 1.505-.116 1.234.525s-1.644.125-1.234-.525z" class="t"/><path d="M72.653 34.128c-.736-1.746 1.733-2.941 2.572-1.608s-1.899 3.207-2.572 1.608z" class="s"/><path d="M73.332 33.257c-.364-.862.855-1.452 1.27-.794s-.937 1.583-1.27.794z" class="t"/><path d="M51.565 5.483c1.048-1.577 3.409-.181 2.762 1.254s-3.722.192-2.762-1.254z" class="s"/><path d="M52.666 5.569c.517-.78 1.683-.09 1.364.619s-1.835.091-1.364-.619z" class="t"/><path d="M62.874 9.432c.438-2.2 3.652-1.733 3.589.131s-3.989 1.884-3.589-.131z" class="s"/><path d="M64.119 9.029c.217-1.086 1.8-.856 1.772.064s-1.97.931-1.772-.064z" class="t"/><path d="M42.841 7.713c.318-1.6 2.656-1.26 2.61.095s-2.902 1.37-2.61-.095z" class="s"/><path d="M43.745 7.42c.157-.79 1.312-.622 1.289.046s-1.432.678-1.289-.046z" class="t"/><path d="M70.998 10.655c.253-1.27 2.109-1 2.074.076s-2.305 1.088-2.074-.076z" class="s"/><path d="M71.719 10.423c.125-.627 1.041-.494 1.024.037s-1.139.538-1.024-.037z" class="t"/><path d="M68.906 17.589c.307-1.543 2.562-1.216 2.519.091s-2.8 1.323-2.519-.091z" class="s"/><path d="M69.779 17.307c.152-.762 1.265-.6 1.244.045s-1.382.653-1.244-.045z" class="t"/><path d="M56.732 32.086c.359-1.808 3-1.424 2.949.107s-3.278 1.553-2.949-.107z" class="s"/><path d="M57.751 31.76c.178-.892 1.482-.7 1.457.053s-1.616.764-1.457-.053z" class="t"/><path d="M52.984 19.503c.321-1.616 2.684-1.274 2.639.1s-2.933 1.381-2.639-.1z" class="s"/><path d="M53.898 19.207c.158-.8 1.325-.629 1.3.047s-1.446.685-1.3-.047z" class="t"/><path d="M54.564 8.45c.167-.838 1.392-.661 1.368.05s-1.521.718-1.368-.05z" class="s"/><path d="M55.038 8.297c.083-.414.688-.327.676.024s-.752.355-.676-.024z" class="t"/><path d="M33.087 42.124c-.772-1.833 1.821-3.09 2.7-1.689s-1.993 3.369-2.7 1.689z" class="s"/><path d="M33.801 41.209c-.381-.905.9-1.526 1.335-.835s-.986 1.665-1.335.835z" class="t"/><path d="M51.243426 55.9667c1.28945-2.245904 4.637146-.549842 3.88177 1.468489s-5.066723.59213-3.88177-1.468489zM72.429084 49.998058c.778947-1.355846 2.798304-.332763 2.343231.88448s-3.05605.358135-2.34323-.88448zM92.484193 63.703386c-1.291164-2.246934-4.639718-.551387-3.883486 1.467459s5.065867.591616 3.883486-1.467459zM71.296144 57.733053c-.778947-1.355846-2.799162-.333278-2.342374.884995s3.055193.35762 2.342374-.884995z" class="u"/><g><path d="M78.172765 56.956405c1.05711-1.70003 3.59461-.30415 2.9584 1.23693s-3.927045.321415-2.9584-1.23693z" class="s"/><path d="M79.338945 57.011175c.522325-.838555 1.773395-.145685 1.46123.61184s-1.940345.158155-1.46123-.61184z" class="t"/></g><g><path d="M84.90046 42.6665c.639505-1.031615 2.186985-.181625 1.79205.75675s-2.38532.19319-1.79205-.75675z" class="s"/><path d="M85.606365 42.701875c.317755-.510125 1.0812-.09029.889035.371955s-1.17993.09583-.889035-.371955z" class="t"/></g></g></svg>